<?xml version="1.0" standalone="no"?>
<!DOCTYPE svg PUBLIC "-//W3C//DTD SVG 20010904//EN"
 "http://www.w3.org/TR/2001/REC-SVG-20010904/DTD/svg10.dtd">
<svg version="1.0" xmlns="http://www.w3.org/2000/svg"
 width="800.000000pt" height="800.000000pt" viewBox="0 0 800.000000 800.000000"
 preserveAspectRatio="xMidYMid meet">
<metadata>
Created by potrace 1.14, written by Peter Selinger 2001-2017
</metadata>
<g transform="translate(0.000000,800.000000) scale(0.100000,-0.100000)"
fill="#000000" stroke="none">
<path d="M3105 6943 c-128 -19 -205 -53 -262 -117 -39 -45 -78 -121 -89 -176
-9 -45 -11 -4155 -3 -4233 18 -159 136 -281 294 -305 178 -28 332 24 419 141
75 102 69 -82 70 2262 0 1748 -2 2108 -14 2150 -33 122 -140 231 -255 260 -43
11 -137 21 -160 18z"/>
<path d="M6098 5575 c-2 -1 -48 -5 -103 -8 -55 -3 -109 -8 -120 -10 -11 -3
-40 -8 -65 -12 -142 -22 -313 -78 -475 -156 -398 -191 -730 -547 -904 -969
-32 -79 -78 -224 -87 -275 -2 -16 -9 -55 -15 -85 -18 -94 -23 -315 -9 -368 18
-66 42 -111 82 -153 76 -81 168 -117 297 -117 240 0 380 133 395 374 14 216
36 314 104 454 111 232 318 414 584 513 35 13 86 29 113 36 28 6 61 14 75 17
52 13 306 12 380 0 141 -25 187 -39 291 -90 191 -93 347 -251 447 -451 78
-156 110 -285 119 -477 l6 -137 -844 0 c-464 0 -851 -2 -859 -4 -118 -29 -161
-59 -221 -150 -101 -155 -79 -381 48 -501 50 -47 109 -74 179 -83 32 -5 532
-8 1109 -7 1172 1 1106 -3 1217 71 62 41 120 118 140 187 9 29 13 137 13 381
0 400 -4 445 -50 635 -40 162 -129 385 -192 477 -10 15 -25 40 -32 55 -30 59
-173 238 -261 326 -274 274 -628 456 -978 503 -129 17 -374 33 -384 24z"/>
<path d="M1548 5525 c-2 -2 -25 -6 -53 -9 -117 -15 -145 -21 -245 -50 -481
-138 -914 -538 -1110 -1026 -12 -30 -26 -64 -31 -75 -26 -62 -72 -237 -84
-325 -4 -25 -11 -70 -15 -100 -5 -30 -7 -318 -6 -640 2 -489 5 -599 19 -673
55 -297 169 -556 358 -813 78 -107 246 -279 344 -355 39 -29 72 -56 75 -59 9
-9 69 -50 74 -50 3 0 25 -13 49 -30 61 -41 249 -134 324 -160 150 -52 304 -84
453 -96 71 -5 393 -5 490 0 41 3 147 7 235 11 88 3 196 8 240 10 44 2 154 7
245 10 370 12 419 17 485 51 60 31 88 56 125 109 47 69 68 141 65 225 -5 164
-93 301 -225 351 -56 21 -151 25 -400 14 -41 -2 -154 -6 -250 -10 -96 -3 -215
-8 -265 -10 -678 -28 -748 -26 -906 26 -222 73 -439 236 -564 424 -61 92 -94
163 -129 272 -54 170 -56 192 -53 808 2 314 6 581 10 595 3 14 8 36 10 50 50
282 260 561 517 687 144 71 271 98 445 93 55 -1 179 -3 275 -4 170 -1 177 0
231 25 31 15 75 44 96 65 146 142 140 411 -14 556 -35 34 -127 76 -179 83 -97
12 -627 29 -636 20z"/>
<path d="M4570 3141 c-30 -9 -66 -23 -80 -31 -50 -27 -111 -96 -143 -159 -32
-65 -32 -67 -32 -211 1 -152 6 -209 31 -325 8 -38 17 -80 20 -92 9 -44 67
-200 104 -279 178 -383 529 -693 955 -844 100 -35 260 -75 345 -85 30 -4 66
-9 80 -12 14 -3 297 -7 630 -9 585 -4 607 -4 659 15 304 113 340 511 62 682
-69 42 -84 43 -641 45 -294 1 -566 4 -605 8 -275 27 -519 152 -677 346 -65 80
-137 239 -154 340 -3 14 -7 32 -9 40 -6 20 -14 106 -20 203 -9 149 -51 238
-147 311 -90 68 -264 94 -378 57z"/>
</g>
</svg>
